# xmcd CD database file
#
# Track frame offsets:
#	183
#	21303
#	41055
#	62803
#
# Disc length: 1111 seconds
#
# Revision: 0
# Processed by: cddbd v1.5.1PL0 Copyright (c) Steve Scherf et al.
# Submitted via: CDex 1.51
#
DISCID=32045504
DTITLE=Bruce Dickinson - Dive! Dive! Dive! (EP)
DYEAR=1990
DGENRE=Hard Rock
TTITLE0=Dive! Dive! Dive!
TTITLE1=Riding With The Angels (LIVE)
TTITLE2=Sin City (LIVE)
TTITLE3=Black Night (LIVE)
EXTD=YEAR: 1990
EXTT0=
EXTT1=
EXTT2=
EXTT3=
PLAYORDER=
